<?xml version="1.0" encoding="utf-8"?>
<!-- Svg Vector Icons : http://www.onlinewebfonts.com/icon -->
<!DOCTYPE svg PUBLIC "-//W3C//DTD SVG 1.1//EN" "http://www.w3.org/Graphics/SVG/1.1/DTD/svg11.dtd">
<svg version="1.1" xmlns="http://www.w3.org/2000/svg" xmlns:xlink="http://www.w3.org/1999/xlink" x="0px" y="0px" viewBox="0 0 1000 1000" enable-background="new 0 0 1000 1000" xml:space="preserve">
<metadata> Svg Vector Icons : http://www.onlinewebfonts.com/icon </metadata>
<g><g transform="translate(0.000000,511.000000) scale(0.100000,-0.100000)"><path d="M557.7,3142.5c-184-38.3-354.5-182.1-421.6-358.4c-38.3-105.4-38.3-115-34.5-2705.9l5.7-2600.5l51.7-97.7c28.7-53.7,92-134.2,139.9-176.3c172.5-151.4-253-138,4733.4-134.2l4465.1,5.7l105.4,59.4c122.6,69,233.8,205.1,272.1,331.5c19.2,70.9,24.9,569.2,24.9,2656.1c0,2485.5-1.9,2571.8-36.4,2663.7c-47.9,124.6-180.1,262.5-304.7,318.1l-99.6,46l-4417.2,1.9C2612.1,3154,594.1,3150.1,557.7,3142.5z M3806,2462.2c195.5-44.1,421.6-120.8,574.9-197.4c139.9-70.9,440.8-262.5,459.9-295.1c7.7-9.6-34.5-70.9-93.9-132.2c-207-226.1-377.5-498.3-498.3-797.2c-38.3-95.8-69-185.9-69-197.4c0-13.4,36.4-21.1,93.9-21.1h92l34.5,92c105.4,277.9,299,594.1,494.4,801.1l118.8,128.4l111.2-122.6c203.1-224.2,427.3-594.1,517.4-864.3c9.6-26.8,34.5-34.5,109.2-34.5c51.7,0,95.8,3.8,95.8,7.7c0,5.7-23,72.8-49.8,149.5c-103.5,291.3-287.5,588.3-528.9,862.4l-113.1,126.5l122.6,88.2c601.7,429.3,1364.5,557.7,2102.3,356.4c199.3-55.6,574.9-241.5,757-377.5c205-153.3,494.4-461.8,620.9-665C9574.2,59,9001.2-1658,7560.1-2213.8c-279.8-109.2-525.1-151.4-860.5-153.3c-425.4,0-724.4,69-1092.3,252.9c-159.1,78.6-450.3,264.5-450.3,287.5c0,3.8,55.6,67.1,122.6,139.9c193.6,205,366,473.3,477.2,745.5c109.2,268.3,109.2,253-5.7,245.3l-99.7-5.8L5588.2-857c-116.9-281.7-308.5-573-498.3-755.1l-90.1-86.2l-115,124.6c-191.6,208.9-379.4,513.6-477.2,776.1l-38.3,105.4h-95.8c-51.7,0-93.9-7.7-93.9-19.2c0-34.5,90.1-258.7,162.9-402.4c97.7-197.4,214.6-367.9,373.7-551.9c72.8-86.2,134.1-161,134.1-164.8c0-5.8-86.2-67.1-191.6-138c-822.1-546.2-1868.5-540.4-2702.1,17.2c-184,122.7-523.2,461.9-645.8,645.8C1027.2-881.9,895-448.8,895,55.2c-1.9,310.5,23,481,107.3,747.4c276,871.9,1017.6,1515.9,1931.7,1674.9C3137.1,2513.9,3612.4,2504.3,3806,2462.2z"/><path d="M4074.2,607.1c-3.8-13.4-47.9-226.1-95.8-471.4c-76.7-385.2-86.2-456.1-67.1-513.6c26.8-80.5,101.6-122.7,216.5-122.7c107.3,0,147.6,30.7,161,128.4c9.6,74.7,7.7,80.5-42.2,86.2c-88.2,9.6-95.8,46-57.5,272.1l36.4,203.1h63.2c55.6,0,63.2,7.7,80.5,72.8C4400,369.5,4396.2,381,4331,381c-59.4,0-61.3,0-47.9,82.4c7.7,44.1,17.2,99.7,24.9,124.6c9.6,40.3,3.8,42.2-107.3,42.2C4124.1,630.1,4080,622.5,4074.2,607.1z"/><path d="M6103.7,584.1C5912,496,5789.4,315.8,5749.1,72.5c-49.8-308.5,116.9-546.2,400.5-569.2c122.7-9.6,310.4,26.8,310.4,61.3c0,13.4-13.4,63.2-28.7,109.2l-28.8,86.2l-124.6-7.7c-120.7-7.7-126.5-5.8-189.7,57.5c-80.5,80.5-103.5,180.1-70.9,300.9c30.7,116.9,84.3,184,180.1,230c93.9,46,153.3,49.8,243.4,19.2c59.4-21.1,65.2-19.2,141.8,57.5l78.6,80.5l-57.5,47.9C6485,641.6,6264.7,658.9,6103.7,584.1z"/><path d="M8658.2,616.7c-5.7-9.6-19.2-82.4-32.6-162.9c-13.4-82.4-28.7-149.5-34.5-149.5c-5.7,0-30.7,19.2-57.5,44.1c-38.3,36.4-67.1,42.2-184,42.2c-189.7,0-272.1-53.7-358.3-231.9c-86.2-182.1-95.8-331.5-30.7-475.3c78.6-170.6,185.9-216.6,360.3-155.2c74.7,26.8,86.2,26.8,105.4,0c15.3-21.1,55.6-28.8,149.5-28.8c69,0,126.5,3.8,126.5,7.7c0,9.6,189.7,1029.1,201.2,1080.8c9.6,40.3,5.8,42.2-113.1,42.2C8721.4,630.1,8662,624.4,8658.2,616.7z M8476.2,156.8c84.3-74.7,11.5-356.4-101.6-396.7c-195.5-67.1-268.3,189.7-103.5,364.1C8340.1,197,8418.7,210.4,8476.2,156.8z"/><path d="M1211.2,66.7c-53.7-277.9-97.7-519.3-97.7-536.6c0-24.9,23-30.7,113.1-30.7h113.1l21.1,95.8c11.5,53.7,44.1,222.3,72.8,375.6c30.7,162.9,57.5,264.5,65.2,243.4c5.7-19.2,23-187.8,36.4-373.7l24.9-341.1h118.8h116.9l161,362.2c90.1,201.2,164.8,360.3,168.6,356.4c5.8-5.7-88.1-528.9-120.7-674.6c-9.6-42.1-5.7-44.1,115-44.1c113.1,0,124.6,3.8,134.1,44.1c5.7,23,51.7,262.5,101.6,530.8l92,488.7l-182.1,5.7c-99.7,1.9-191.6,1.9-203.1-1.9c-11.5-5.7-84.3-149.5-162.9-321.9L1755.4-69.4l-11.5,97.7c-7.7,53.7-19.2,197.4-26.8,320l-13.4,224.2h-195.5h-197.4L1211.2,66.7z"/><path d="M2589.1,382.9c-67.1-11.5-90.1-47.9-93.9-149.5c-1.9-44.1,0-44.1,195.5-32.6c172.5,11.5,201.2,9.6,230-21.1c69-67.1,34.5-95.8-130.3-107.3c-241.5-17.2-367.9-99.6-412-268.3c-46-166.7,42.2-285.5,218.5-300.9c57.5-3.8,132.2,1.9,166.7,13.4c42.2,15.3,69,15.3,82.4,1.9c9.6-9.6,69-19.2,128.4-19.2c128.4,0,111.1-32.6,180.1,335.4c69,364.1,49.8,454.2-111.1,528.9C2960.8,400.2,2740.4,409.7,2589.1,382.9z M2888-163.2c-23-124.6-210.8-201.2-260.6-107.3c-49.8,93.9,88.2,199.3,226.1,174.4C2893.8-101.9,2897.6-111.5,2888-163.2z"/><path d="M3464.8,373.3c-128.4-47.9-185.9-126.5-185.9-260.6c0-113.1,21.1-139.9,182.1-228c97.7-55.6,143.7-90.1,143.7-115c0-67.1-47.9-82.4-228-76.7l-170.6,7.7l-13.4-82.4c-7.7-46-7.7-90.1,0-95.8c5.7-7.7,101.6-15.3,208.9-19.2c166.7-7.7,210.8-1.9,285.5,30.7c107.3,47.9,151.4,111.2,162.9,233.8c11.5,124.6-21.1,170.6-178.2,258.7c-189.7,105.4-164.8,191.6,49.8,178.2l118.8-5.7l28.7,82.4c15.3,46,21.1,88.2,15.3,95.8C3857.7,402.1,3537.7,400.2,3464.8,373.3z"/><path d="M4649.2,379.1c-161-59.4-274-224.2-291.3-423.5c-21.1-220.4,74.7-387.1,251-436.9c113.1-30.7,404.4-17.2,440.8,21.1c15.3,15.3,32.6,59.4,40.3,101.6l11.5,72.8l-162.9-13.4c-243.4-19.2-337.3,23-337.3,151.4v49.8h266.4c258.7,0,266.4,1.9,277.9,44.1c40.3,151.4-13.4,335.4-116.9,398.6C4950,392.5,4739.2,411.7,4649.2,379.1z M4892.5,195.1c19.2-17.2,34.5-55.6,34.5-86.2V55.2h-153.3c-162.9,0-174.4,7.7-120.7,88.2C4706.6,227.7,4829.3,252.6,4892.5,195.1z"/><path d="M6747.6,382.9c-67.1-11.5-90.1-47.9-93.9-151.4c-1.9-42.2,0-42.2,189.7-30.7c208.9,15.3,249.1,1.9,249.1-80.5c0-44.1-5.7-46-122.7-46c-138,0-266.4-38.3-335.4-101.6c-53.7-49.8-115-176.3-116.9-239.6c0-70.9,53.7-164.8,113.1-201.2c63.2-36.4,220.4-44.1,300.9-13.4c36.4,15.3,57.5,15.3,72.8,0c9.6-9.6,69-19.2,128.4-19.2c97.8,0,109.2,3.8,118.8,44.1c51.7,214.6,109.2,567.3,97.8,615.2C7311,336.9,7209.4,400.2,6968,396.3C6883.6,396.3,6784,390.6,6747.6,382.9z M7044.6-163.2c-17.3-80.5-92-145.7-170.6-145.7c-76.7,0-115,40.3-99.6,103.5c19.2,76.7,120.7,126.5,228,111.2C7052.3-101.9,7056.1-107.7,7044.6-163.2z"/><path d="M7506.5,367.6c-5.8-19.2-40.2-203.1-78.6-408.2c-36.4-205.1-70.9-392.9-76.7-415.9c-9.6-42.1-5.7-44.1,113.1-44.1H7587l40.3,226.1c23,122.6,59.4,260.6,82.4,306.6c36.4,76.7,113,138,174.4,138c15.3,0,36.4,36.4,49.8,82.4c13.4,44.1,28.7,95.8,32.6,115c13.4,44.1-36.4,42.2-141.8-5.7c-84.3-38.3-84.3-38.3-93.9,0c-9.6,32.6-26.8,38.3-111.1,38.3C7539,400.2,7514.1,392.5,7506.5,367.6z"/><path d="M5310.3,373.3c0-3.8-34.5-191.6-76.7-415.9c-42.2-226.1-76.7-421.6-76.7-433.1c0-17.2,36.4-24.9,115-24.9c130.3,0,111.1-30.7,172.5,283.6c47.9,260.6,115,367.9,228,367.9c28.8,0,44.1,23,67.1,103.5c17.2,57.5,30.7,109.2,30.7,115c0,26.8-109.2,9.6-166.7-26.8c-61.3-36.4-61.3-36.4-72.8,0c-9.6,32.6-30.7,38.3-116.9,38.3C5356.3,381,5310.3,377.2,5310.3,373.3z"/></g></g>
</svg>